<svg width="124" height="124" viewBox="0 0 124 124" fill="none" xmlns="http://www.w3.org/2000/svg">
<path d="M62 7.75C32.1625 7.75 7.75 32.1625 7.75 62C7.75 91.8375 32.1625 116.25 62 116.25C91.8375 116.25 116.25 91.8375 116.25 62C116.25 32.1625 91.8375 7.75 62 7.75ZM57.7375 31H66.2625V73.625H57.7375V31ZM62 96.875C58.9 96.875 56.1875 94.1625 56.1875 91.0625C56.1875 87.9625 58.9 85.25 62 85.25C65.1 85.25 67.8125 87.9625 67.8125 91.0625C67.8125 94.1625 65.1 96.875 62 96.875Z" fill="#0A1A1F"/>
</svg>
