<svg width="128" height="128" viewBox="0 0 128 128" fill="none" xmlns="http://www.w3.org/2000/svg">
<g clip-path="url(#clip0_1865_5178)">
<path d="M63.9983 7.11133C52.7467 7.11133 41.7478 10.4478 32.3925 16.6988C23.0372 22.9499 15.7456 31.8347 11.4398 42.2298C7.13402 52.6249 6.00743 64.0633 8.2025 75.0987C10.3976 86.134 15.8157 96.2707 23.7718 104.227C31.7278 112.183 41.8645 117.601 52.8998 119.796C63.9352 121.991 75.3736 120.864 85.7687 116.559C96.1638 112.253 105.049 104.961 111.3 95.606C117.551 86.2507 120.887 75.2518 120.887 64.0002C120.887 48.9123 114.894 34.4424 104.225 23.7737C93.5561 13.105 79.0862 7.11133 63.9983 7.11133ZM101.154 44.9069L54.4338 91.5913L26.8427 64.0002C25.8997 63.0572 25.37 61.7783 25.37 60.4447C25.37 59.1111 25.8997 57.8321 26.8427 56.8891C27.7857 55.9461 29.0647 55.4163 30.3983 55.4163C31.7319 55.4163 33.0109 55.9461 33.9538 56.8891L54.505 77.4402L94.1138 37.8669C94.5808 37.4 95.1351 37.0296 95.7451 36.7769C96.3552 36.5242 97.0091 36.3941 97.6694 36.3941C98.3297 36.3941 98.9836 36.5242 99.5937 36.7769C100.204 37.0296 100.758 37.4 101.225 37.8669C101.692 38.3338 102.062 38.8881 102.315 39.4982C102.568 40.1082 102.698 40.7621 102.698 41.4224C102.698 42.0828 102.568 42.7366 102.315 43.3467C102.062 43.9568 101.692 44.5111 101.225 44.978L101.154 44.9069Z" fill="#0A1A1F"/>
</g>
<defs>
<clipPath id="clip0_1865_5178">
<rect width="128" height="128" fill="white"/>
</clipPath>
</defs>
</svg>
