<svg width="44" height="44" viewBox="0 0 44 44" fill="none" xmlns="http://www.w3.org/2000/svg">
<rect width="44" height="44" rx="4" fill="#BABABA" fill-opacity="0.1"/>
<g opacity="0.5" clip-path="url(#clip0_1865_5134)">
<path d="M14.828 31L14.808 31.02L14.787 31H12.992C12.7288 30.9997 12.4765 30.895 12.2905 30.7088C12.1045 30.5226 12 30.2702 12 30.007V13.993C12.0018 13.7304 12.1069 13.479 12.2925 13.2932C12.4781 13.1074 12.7294 13.0021 12.992 13H31.008C31.556 13 32 13.445 32 13.993V30.007C31.9982 30.2696 31.8931 30.521 31.7075 30.7068C31.5219 30.8926 31.2706 30.9979 31.008 31H14.828ZM30 25V15H14V29L24 19L30 25ZM30 27.828L24 21.828L16.828 29H30V27.828ZM18 21C17.4696 21 16.9609 20.7893 16.5858 20.4142C16.2107 20.0391 16 19.5304 16 19C16 18.4696 16.2107 17.9609 16.5858 17.5858C16.9609 17.2107 17.4696 17 18 17C18.5304 17 19.0391 17.2107 19.4142 17.5858C19.7893 17.9609 20 18.4696 20 19C20 19.5304 19.7893 20.0391 19.4142 20.4142C19.0391 20.7893 18.5304 21 18 21Z" fill="black"/>
</g>
<defs>
<clipPath id="clip0_1865_5134">
<rect width="24" height="24" fill="white" transform="translate(10 10)"/>
</clipPath>
</defs>
</svg>
